#!OML:ASF F:\VICON\USERDATA\INSTALL\rory3\rory3.ASF
:FULLY-SPECIFIED
:DEGREES
620
root 4.57678 17.3556 2.30885 4.67599 -11.0892 -5.51493
lowerback 12.6724 -0.196382 3.39441
upperback 5.31184 0.132616 1.06183
thorax -1.52674 0.0841366 -0.825816
lowerneck -12.0122 -0.505458 -2.35982
upperneck 35.6012 -0.32999 0.219336
head 14.178 -0.484049 0.443367
rclavicle -1.43125e-014 1.13307e-014
rhumerus -33.8509 -2.59846 -16.5309
rradius 36.6037
rwrist 8.68194
rhand -21.4012 -45.3963
rfingers 7.12502
rthumb 4.98695 -75.3176
lclavicle -1.43125e-014 1.13307e-014
lhumerus -32.0231 4.12688 14.0769
lradius 28.0984
lwrist 9.60485
lhand -26.2317 -34.2315
lfingers 7.12502
lthumb 0.321947 -4.25201
rfemur -100.883 2.64504 27.6894
rtibia 99
rfoot 48.6503 3.50803
rtoes -3.523
lfemur -18.2058 1.65218 -23.3653
ltibia 30.7407
lfoot -14.5911 6.53245
ltoes 14.4194
621
root 4.57482 17.3561 2.31045 4.67929 -11.1006 -5.5532
lowerback 12.7327 -0.225316 3.38528
upperback 5.25788 0.0990511 1.10546
thorax -1.6172 0.0651538 -0.770775
lowerneck -11.9234 -0.463733 -2.41839
upperneck 35.5923 -0.256858 0.220673
head 14.1529 -0.460769 0.465401
rclavicle 1.09332e-015 -3.97569e-016
rhumerus -33.7454 -2.45077 -16.5209
rradius 36.5685
rwrist 8.65994
rhand -21.5526 -45.1331
rfingers 7.12502
rthumb 4.8408 -75.0578
lclavicle 1.09332e-015 -3.97569e-016
lhumerus -32.2555 3.87216 14.1047
lradius 28.3575
lwrist 9.91585
lhand -25.8274 -32.7814
lfingers 7.12502
lthumb 0.7124 -2.80281
rfemur -100.857 2.65421 27.7612
rtibia 98.9989
rfoot 48.6835 3.54218
rtoes -3.32455
lfemur -18.2038 1.63367 -23.3202
ltibia 30.7523
lfoot -14.5122 6.61581
ltoes 13.9673
622
root 4.57022 17.3553 2.31278 4.66188 -11.0318 -5.59586
lowerback 12.7107 -0.231783 3.44102
upperback 5.28363 0.0956373 1.12034
thorax -1.57817 0.0647552 -0.786137
lowerneck -11.8996 -0.475912 -2.39493
upperneck 35.5526 -0.265528 0.177139
head 14.1294 -0.466365 0.442341
rclavicle -1.48095e-014 -6.55989e-015
rhumerus -33.8324 -2.49294 -16.505
rradius 36.5737
rwrist 8.6086
rhand -21.5795 -44.8238
rfingers 7.12502
rthumb 4.81481 -74.7491
lclavicle -1.48095e-014 -6.55989e-015
lhumerus -32.1927 3.83102 14.1533
lradius 28.2265
lwrist 9.55365
lhand -25.893 -34.6529
lfingers 7.12502
lthumb 0.649126 -4.67419
rfemur -100.819 2.59875 27.8535
rtibia 99.0122
rfoot 48.661 3.45956
rtoes -3.02672
lfemur -18.206 1.6067 -23.2522
ltibia 30.7714
lfoot -14.3721 6.59055
ltoes 13.4715
623
root 4.56581 17.3559 2.3137 4.57708 -10.9838 -5.65544
lowerback 12.8233 -0.239415 3.48573
upperback 5.27553 0.0968787 1.14491
thorax -1.64709 0.0645382 -0.785913
lowerneck -11.788 -0.479845 -2.36434
upperneck 35.5109 -0.256454 0.103012
head 14.0849 -0.467678 0.40841
rclavicle 1.68967e-014 -1.55052e-014
rhumerus -33.8807 -2.377 -16.5116
rradius 36.5212
rwrist 8.4945
rhand -21.6037 -44.6259
rfingers 7.12502
rthumb 4.79139 -74.5518
lclavicle 1.68967e-014 -1.55052e-014
lhumerus -32.2012 3.69782 14.1915
lradius 28.2541
lwrist 9.60357
lhand -26.1246 -35.4428
lfingers 7.12502
lthumb 0.425438 -5.46345
rfemur -100.693 2.56286 27.9571
rtibia 99.023
rfoot 48.6165 3.33319
rtoes -2.84155
lfemur -18.1351 1.60214 -23.1644
ltibia 30.8036
lfoot -14.3 6.5216
ltoes 13.3377
